<?xml version="1.0" encoding="UTF-8"?><svg xmlns="http://www.w3.org/2000/svg" viewBox="0 0 220 100"><defs><marker id="b" overflow="visible" orient="auto"><path d="M2.3 0l-3.5 2v-4z"/></marker><marker id="c" overflow="visible" orient="auto"><path d="M-2.3 0l3.5-2v4z"/></marker><clipPath id="a"><path d="M9 1.5h99v99H9z"/></clipPath></defs><g fill="none" stroke="red" stroke-width="1.2"><path d="M33.46-.27c17.9 9.33 8.27 26.5.98 42.33C26.76 58.7 30.4 79.54 53 69.36c19.9-8.97 33.13-9.7 42.2 29.1" clip-path="url(#a)"/><path d="M156.9 1.57l49.44 97"/><g stroke="#000" stroke-width=".6"><g stroke-width=".5" stroke-dasharray="1.5 1.5"><path d="M88.87 98.44c-4.38-18.76-9.13-24.83-13.5-26.82-6.64-3.02-14.2.9-19.87 3.3-11 4.62-23.52 5.13-28.56-6.5-8.5-19.66 7.56-33.3 10.45-50.83 1-6.1-2.7-10.3-6.8-12.5-2.3-1.2-5.5-2.4-8.5-3.6"/><path d="M45.44 1.54c3.15 4.68 5.5 11.68 4.1 17.8-2.05 8.95-5.88 17.58-9.45 25.32-3.3 7.1-4 14.3-2.1 18.14 2.6 5.14 9.5 2.2 12.4.9 9.8-4.42 21.5-7.66 30.6-2.95 9.6 6 13.5 14.67 16.9 24.56"/><path d="M163.9 1.57l49.44 96.85"/><path d="M149.7 1.57l49.44 96.85"/></g><path d="M1.3 1.6H98v97H1.3z"/><path d="M122 1.6h96.7v97H122z"/><g marker-end="url(#b)"><g stroke-width=".3" marker-start="url(#c)"><path d="M165.8 30.63l3.35-1.8"/><path d="M171.7 27.43l3.35-1.8"/><path d="M34.13 31.13l3.1 1.5"/><path d="M39.85 33.86l3.27 1.6"/></g><path d="M86.02 50.14h46.17"/></g></g></g><text x="107.87" y="45.86" font-size="6" font-family="sans-serif">Ø</text><g fill="#fff" stroke="#000" stroke-width=".2"><circle cx="15.4" cy="37.2" r="1"/><circle cx="13.7" cy="31.2" r="1"/><circle cx="4.7" cy="37.2" r="1"/><circle cx="4.8" cy="50.8" r="1"/><circle cx="15.1" cy="46.4" r="1"/><circle cx="19.5" cy="49.2" r="1"/><circle cx="19.6" cy="52.3" r="1"/><circle cx="16.6" cy="55.3" r="1"/><circle cx="21.1" cy="60" r="1"/><circle cx="10.7" cy="62.9" r="1"/><circle cx="18.4" cy="70.5" r="1"/><circle cx="10.8" cy="78" r="1"/><circle cx="27.6" cy="76.2" r="1"/><circle cx="35.6" cy="80.9" r="1"/><circle cx="47.7" cy="82.3" r="1"/><circle cx="34.1" cy="91.5" r="1"/><circle cx="52.3" cy="87.3" r="1"/><circle cx="68.8" cy="87" r="1"/><circle cx="83.3" cy="95.6" r="1"/><circle cx="77.6" cy="83.2" r="1"/><circle cx="75" cy="77.7" r="1"/><circle cx="71.1" cy="77.3" r="1"/><circle cx="67.8" cy="74.7" r="1"/><circle cx="73.2" cy="70.9" r="1"/><circle cx="15.3" cy="26.7" r="1"/><circle cx="25.2" cy="28.1" r="1"/><circle cx="32.6" cy="23.7" r="1"/><circle cx="32.6" cy="19.1" r="1"/><circle cx="37.5" cy="14.6" r="1"/><circle cx="26.6" cy="20.7" r="1"/><circle cx="24.3" cy="14.6" r="1"/><circle cx="28.9" cy="10.2" r="1"/><circle cx="18.3" cy="19.1" r="1"/><circle cx="16.8" cy="13" r="1"/><circle cx="16.8" cy="10.1" r="1"/><circle cx="18.3" cy="8.5" r="1"/><circle cx="10.8" cy="14.6" r="1"/><circle cx="4.7" cy="20.6" r="1"/><circle cx="58.3" cy="78.3" r="1"/><circle cx="133.2" cy="36.9" r="1"/><circle cx="145.5" cy="35.3" r="1"/><circle cx="140.9" cy="26.8" r="1"/><circle cx="149.4" cy="27" r="1"/><circle cx="136.3" cy="22.1" r="1"/><circle cx="131.8" cy="13" r="1"/><circle cx="142.3" cy="11.7" r="1"/><circle cx="145.5" cy="13" r="1"/><circle cx="146.9" cy="10.3" r="1"/><circle cx="148.4" cy="8.6" r="1"/><circle cx="142.4" cy="7.1" r="1"/><circle cx="151.4" cy="14.6" r="1"/><circle cx="156.9" cy="24" r="1"/><circle cx="159.2" cy="20.1" r="1"/><circle cx="158.4" cy="30" r="1"/><circle cx="162.6" cy="42.4" r="1"/><circle cx="165.2" cy="42.4" r="1"/><circle cx="166.7" cy="45.6" r="1"/><circle cx="152.9" cy="45.9" r="1"/><circle cx="145.3" cy="47.4" r="1"/><circle cx="141.1" cy="43" r="1"/><circle cx="137.7" cy="55" r="1"/><circle cx="127.8" cy="64.7" r="1"/><circle cx="149" cy="63.1" r="1"/><circle cx="159.5" cy="61.5" r="1"/><circle cx="172.9" cy="56.2" r="1"/><circle cx="180" cy="68.9" r="1"/><circle cx="181.4" cy="72" r="1"/><circle cx="184.5" cy="69.8" r="1"/><circle cx="174" cy="72.2" r="1"/><circle cx="183" cy="76.7" r="1"/><circle cx="184.4" cy="84.2" r="1"/><circle cx="177" cy="82.6" r="1"/><circle cx="188.9" cy="91.7" r="1"/><circle cx="159.5" cy="87.2" r="1"/><circle cx="165.5" cy="78.2" r="1"/><circle cx="155.2" cy="79.5" r="1"/><circle cx="138.3" cy="76.7" r="1"/><circle cx="165.2" cy="50" r="1"/></g><g stroke="#000" stroke-width=".2"><circle cx="66.9" cy="29.7" r="1"/><circle cx="56.4" cy="37.3" r="1"/><circle cx="38.9" cy="64.1" r="1"/><circle cx="82" cy="32.6" r="1"/><circle cx="53.9" cy="6.7" r="1"/><circle cx="94.6" cy="70.6" r="1"/><circle cx="195" cy="25.2" r="1"/><circle cx="199.5" cy="16" r="1"/><circle cx="183" cy="17.6" r="1"/><circle cx="181.2" cy="35.5" r="1"/><circle cx="206.6" cy="72.3" r="1"/><circle cx="196.5" cy="35.8" r="1"/></g></svg>