<?xml version="1.0" encoding="UTF-8"?>
<svg xmlns="http://www.w3.org/2000/svg" width="1080" height="600" viewBox="0 0 1080 600" role="img" aria-label="Chunked Prefill Timeline">
<defs>
  <filter id="roughen">
    <feTurbulence type="fractalNoise" baseFrequency="0.018" numOctaves="2" seed="7" result="noise"/>
    <feDisplacementMap in="SourceGraphic" in2="noise" scale="0.55"/>
  </filter>
  <marker id="arrow" viewBox="0 0 12 12" refX="9.2" refY="6" markerUnits="userSpaceOnUse" markerWidth="12" markerHeight="12" orient="auto-start-reverse">
    <path d="M 1.5 2 L 11 6 L 1.5 10 z" fill="#30363d"/>
  </marker>
  <style>
    text { font-family: Inter, -apple-system, BlinkMacSystemFont, "Segoe UI", "PingFang SC", "Noto Sans CJK SC", Arial, sans-serif; }
    .rough { filter: url(#roughen); }
  </style>
</defs>
<rect width="1080" height="600" fill="#fbfaf7"/>
<path d="M 40 86 H 1040" stroke="#e9e2d7" stroke-width="1"/>
<text x="54" y="54.08" text-anchor="start" font-size="28" font-weight="800" fill="#27323a"><tspan x="54" dy="0">Chunked Prefill Timeline</tspan></text>
<text x="82" y="153.2" text-anchor="middle" font-size="20" font-weight="800" fill="#27323a"><tspan x="82" dy="0">T0</tspan></text><path d="M 120 146 L 980 146" fill="none" stroke="#d8d2c8" stroke-width="2"/><rect class="rough" x="150" y="120" width="330" height="52" rx="10" fill="#fff0d8" stroke="#30363d" stroke-width="2"/><text x="315" y="152.12" text-anchor="middle" font-size="17" font-weight="600" fill="#27323a"><tspan x="315" dy="0">P tokens 0..2047</tspan></text><rect class="rough" x="540" y="128" width="90" height="36" rx="18" fill="#dfeeff" stroke="#30363d" stroke-width="1.8"/><text x="585" y="152.48" text-anchor="middle" font-size="18" font-weight="600" fill="#27323a"><tspan x="585" dy="0">A</tspan></text><rect class="rough" x="650" y="128" width="90" height="36" rx="18" fill="#dfeeff" stroke="#30363d" stroke-width="1.8"/><text x="695" y="152.48" text-anchor="middle" font-size="18" font-weight="600" fill="#27323a"><tspan x="695" dy="0">B</tspan></text><rect class="rough" x="760" y="128" width="90" height="36" rx="18" fill="#e5f4e9" stroke="#30363d" stroke-width="1.8"/><text x="805" y="152.48" text-anchor="middle" font-size="18" font-weight="600" fill="#27323a"><tspan x="805" dy="0">C/D</tspan></text><text x="82" y="237.2" text-anchor="middle" font-size="20" font-weight="800" fill="#27323a"><tspan x="82" dy="0">T1</tspan></text><path d="M 120 230 L 980 230" fill="none" stroke="#d8d2c8" stroke-width="2"/><rect class="rough" x="150" y="204" width="330" height="52" rx="10" fill="#fff0d8" stroke="#30363d" stroke-width="2"/><text x="315" y="236.12" text-anchor="middle" font-size="17" font-weight="600" fill="#27323a"><tspan x="315" dy="0">P tokens 2048..4095</tspan></text><rect class="rough" x="540" y="212" width="90" height="36" rx="18" fill="#dfeeff" stroke="#30363d" stroke-width="1.8"/><text x="585" y="236.48" text-anchor="middle" font-size="18" font-weight="600" fill="#27323a"><tspan x="585" dy="0">A</tspan></text><rect class="rough" x="650" y="212" width="90" height="36" rx="18" fill="#dfeeff" stroke="#30363d" stroke-width="1.8"/><text x="695" y="236.48" text-anchor="middle" font-size="18" font-weight="600" fill="#27323a"><tspan x="695" dy="0">B</tspan></text><rect class="rough" x="760" y="212" width="90" height="36" rx="18" fill="#e5f4e9" stroke="#30363d" stroke-width="1.8"/><text x="805" y="236.48" text-anchor="middle" font-size="18" font-weight="600" fill="#27323a"><tspan x="805" dy="0">C/D</tspan></text><text x="82" y="321.2" text-anchor="middle" font-size="20" font-weight="800" fill="#27323a"><tspan x="82" dy="0">T2</tspan></text><path d="M 120 314 L 980 314" fill="none" stroke="#d8d2c8" stroke-width="2"/><rect class="rough" x="150" y="288" width="330" height="52" rx="10" fill="#fff0d8" stroke="#30363d" stroke-width="2"/><text x="315" y="320.12" text-anchor="middle" font-size="17" font-weight="600" fill="#27323a"><tspan x="315" dy="0">P tokens 4096..6143</tspan></text><rect class="rough" x="540" y="296" width="90" height="36" rx="18" fill="#dfeeff" stroke="#30363d" stroke-width="1.8"/><text x="585" y="320.48" text-anchor="middle" font-size="18" font-weight="600" fill="#27323a"><tspan x="585" dy="0">A</tspan></text><rect class="rough" x="650" y="296" width="90" height="36" rx="18" fill="#dfeeff" stroke="#30363d" stroke-width="1.8"/><text x="695" y="320.48" text-anchor="middle" font-size="18" font-weight="600" fill="#27323a"><tspan x="695" dy="0">B</tspan></text><rect class="rough" x="760" y="296" width="90" height="36" rx="18" fill="#e5f4e9" stroke="#30363d" stroke-width="1.8"/><text x="805" y="320.48" text-anchor="middle" font-size="18" font-weight="600" fill="#27323a"><tspan x="805" dy="0">C/D</tspan></text><text x="82" y="405.2" text-anchor="middle" font-size="20" font-weight="800" fill="#27323a"><tspan x="82" dy="0">T3</tspan></text><path d="M 120 398 L 980 398" fill="none" stroke="#d8d2c8" stroke-width="2"/><rect class="rough" x="150" y="372" width="330" height="52" rx="10" fill="#fff0d8" stroke="#30363d" stroke-width="2"/><text x="315" y="404.12" text-anchor="middle" font-size="17" font-weight="600" fill="#27323a"><tspan x="315" dy="0">P final chunk</tspan></text><rect class="rough" x="540" y="380" width="90" height="36" rx="18" fill="#dfeeff" stroke="#30363d" stroke-width="1.8"/><text x="585" y="404.48" text-anchor="middle" font-size="18" font-weight="600" fill="#27323a"><tspan x="585" dy="0">A</tspan></text><rect class="rough" x="650" y="380" width="90" height="36" rx="18" fill="#dfeeff" stroke="#30363d" stroke-width="1.8"/><text x="695" y="404.48" text-anchor="middle" font-size="18" font-weight="600" fill="#27323a"><tspan x="695" dy="0">B</tspan></text><rect class="rough" x="760" y="380" width="90" height="36" rx="18" fill="#e5f4e9" stroke="#30363d" stroke-width="1.8"/><text x="805" y="404.48" text-anchor="middle" font-size="18" font-weight="600" fill="#27323a"><tspan x="805" dy="0">C/D</tspan></text><text x="82" y="489.2" text-anchor="middle" font-size="20" font-weight="800" fill="#27323a"><tspan x="82" dy="0">T4</tspan></text><path d="M 120 482 L 980 482" fill="none" stroke="#d8d2c8" stroke-width="2"/><rect class="rough" x="150" y="456" width="330" height="52" rx="10" fill="#efe9ff" stroke="#30363d" stroke-width="2"/><text x="315" y="488.12" text-anchor="middle" font-size="17" font-weight="600" fill="#27323a"><tspan x="315" dy="0">P decode</tspan></text><rect class="rough" x="540" y="464" width="90" height="36" rx="18" fill="#dfeeff" stroke="#30363d" stroke-width="1.8"/><text x="585" y="488.48" text-anchor="middle" font-size="18" font-weight="600" fill="#27323a"><tspan x="585" dy="0">A</tspan></text><rect class="rough" x="650" y="464" width="90" height="36" rx="18" fill="#dfeeff" stroke="#30363d" stroke-width="1.8"/><text x="695" y="488.48" text-anchor="middle" font-size="18" font-weight="600" fill="#27323a"><tspan x="695" dy="0">B</tspan></text>
</svg>
